<svg width="200" height="200" style="background-color: #dc3545" xmlns="http://www.w3.org/2000/svg">

 <g>
  <path id="svg_7" d="m-34.81906,-28.69598l0.745,-1.30375l0.745,1.30375l-1.49,0z" stroke-width="0" stroke="#000" fill="#fff"/>
  <path id="svg_15" d="m317.04866,88.47621c0.03071,-0.02977 0.06009,-0.06409 0.08596,-0.0949l-0.77536,-0.01414l-0.10635,0.12174l-0.33693,-0.01046c0.04222,-0.05543 0.08846,-0.12054 0.12275,-0.16944l-0.12197,-0.16441l0.35949,0l0.07315,0.10272l0.79162,0l-0.09819,-0.10249c0.0303,-0.0323 0.07515,-0.0754 0.09948,-0.098l0.26624,0.26122l-0.26684,0.26528l-0.09305,-0.09713l0,0z" stroke-width="0" stroke="#000" fill="#fff"/>
  <path id="svg_27" d="m156.85505,89.60458l-0.02914,0.00806c-0.00267,-0.0071 -0.00669,-0.01325 -0.01156,-0.01814l0.01541,-0.0272c0.00136,-0.0024 0.00052,-0.00546 -0.0019,-0.00683c-0.0024,-0.00136 -0.00545,-0.00051 -0.0068,0.00189l-0.01462,0.02581c-0.00302,-0.00192 -0.0062,-0.00345 -0.0095,-0.00448c-0.00208,-0.00719 -0.00826,-0.01206 -0.01529,-0.01281c-0.00001,-0.00002 -0.00001,-0.00004 -0.00002,-0.00006c-0.00031,-0.00121 -0.00047,-0.0023 -0.00049,-0.00325c-0.00003,-0.00095 0.00006,-0.00176 0.00023,-0.0024c0.00019,-0.00065 0.0004,-0.00118 0.00063,-0.00159c0.00073,-0.0013 0.0017,-0.00215 0.00289,-0.00255c0.00012,0.00141 0.00071,0.00241 0.00176,0.00301c0.00078,0.00044 0.00168,0.00058 0.00273,0.00043c0.00106,-0.00016 0.00188,-0.00076 0.00248,-0.00182c0.00053,-0.00093 0.00064,-0.00195 0.00032,-0.00304c-0.00032,-0.0011 -0.00102,-0.00194 -0.00207,-0.00254c-0.00077,-0.00044 -0.00157,-0.00066 -0.00241,-0.00065c-0.00084,0.00001 -0.00164,0.00017 -0.00241,0.00049c-0.00077,0.00032 -0.00148,0.0008 -0.00215,0.00145c-0.00066,0.00065 -0.00121,0.00136 -0.00165,0.00213c-0.00066,0.00117 -0.00108,0.00248 -0.00125,0.00392c-0.00017,0.00143 -0.00019,0.00283 -0.00005,0.0042c0.00009,0.0008 0.00031,0.00151 0.00047,0.00225c-0.00188,-0.00011 -0.00379,0.00001 -0.0057,0.00054c-0.00241,0.00067 -0.00457,0.0018 -0.0064,0.00327c-0.00026,-0.00086 -0.00049,-0.00172 -0.0009,-0.00259c-0.00058,-0.00125 -0.00132,-0.00243 -0.00219,-0.00358c-0.00089,-0.00115 -0.00192,-0.00205 -0.00309,-0.00272c-0.00077,-0.00043 -0.00161,-0.00076 -0.00251,-0.00097c-0.0009,-0.00022 -0.00176,-0.00026 -0.00258,-0.00014s-0.00159,0.0004 -0.00232,0.00082c-0.00073,0.00042 -0.0013,0.00103 -0.00174,0.00179c-0.0006,0.00106 -0.00075,0.00214 -0.00047,0.00324c0.00029,0.00111 0.00091,0.00192 0.00184,0.00245c0.00105,0.0006 0.00208,0.00069 0.00306,0.00028c0.00098,-0.00041 0.00169,-0.001 0.00213,-0.00178c0.0006,-0.00105 0.00059,-0.00222 -0.00004,-0.00348c0.00122,-0.00028 0.00249,-0.00004 0.00379,0.00071c0.00041,0.00023 0.00086,0.00058 0.00135,0.00104c0.00049,0.00046 0.00097,0.00111 0.00143,0.00194c0.00047,0.00083 0.0009,0.00184 0.00126,0.00304c0.00007,0.00022 0.00012,0.00049 0.00018,0.00073c-0.00456,0.00414 -0.00679,0.01044 -0.00549,0.01679c-0.00291,0.00292 -0.00536,0.00635 -0.00729,0.01018l-0.0258,-0.01463c-0.0024,-0.00136 -0.00546,-0.00051 -0.00682,0.00189c-0.00136,0.00241 -0.00051,0.00547 0.00189,0.00684l0.02721,0.01541c-0.00166,0.0067 -0.00194,0.01404 -0.00059,0.02149l-0.02914,0.00807c-0.00267,0.00074 -0.00423,0.0035 -0.00349,0.00616c0.00074,0.00265 0.00349,0.00422 0.00616,0.00347l0.0294,-0.00814c0.00252,0.00529 0.00682,0.0114 0.01186,0.01722l-0.01597,0.0282c-0.00136,0.00241 -0.00052,0.00546 0.00189,0.00682c0.0012,0.00069 0.00256,0.00081 0.00379,0.00047c0.00124,-0.00034 0.00235,-0.00115 0.00302,-0.00236l0.01448,-0.02555c0.0135,0.01297 0.02842,0.02062 0.02889,0.00527c0.00799,0.0128 0.01726,-0.00169 0.02251,-0.01988l0.02602,0.01474c0.0012,0.00069 0.00257,0.00081 0.00381,0.00047c0.00123,-0.00034 0.00234,-0.00115 0.00302,-0.00236c0.00136,-0.0024 0.00052,-0.00546 -0.00189,-0.00681l-0.02851,-0.01615c0.00146,-0.00753 0.00211,-0.01492 0.0016,-0.02069l0.02943,-0.00814c0.00265,-0.00074 0.00424,-0.00349 0.00348,-0.00615c-0.00074,-0.00266 -0.0035,-0.00422 -0.00616,-0.00349z" stroke-width="0" stroke="#000" fill="#fff"/>
  <path id="svg_28" d="m75.26562,117.96189l-0.02914,0.00806c-0.00267,-0.0071 -0.00669,-0.01325 -0.01156,-0.01814l0.01541,-0.0272c0.00136,-0.0024 0.00052,-0.00546 -0.0019,-0.00683c-0.0024,-0.00136 -0.00545,-0.00051 -0.0068,0.00189l-0.01462,0.02581c-0.00302,-0.00192 -0.0062,-0.00345 -0.0095,-0.00448c-0.00208,-0.00719 -0.00826,-0.01206 -0.01529,-0.01281c-0.00001,-0.00002 -0.00001,-0.00004 -0.00002,-0.00006c-0.00031,-0.00121 -0.00047,-0.0023 -0.00049,-0.00325c-0.00003,-0.00095 0.00006,-0.00176 0.00023,-0.0024c0.00019,-0.00065 0.0004,-0.00118 0.00063,-0.00159c0.00073,-0.0013 0.0017,-0.00215 0.00289,-0.00255c0.00012,0.00141 0.00071,0.00241 0.00176,0.00301c0.00078,0.00044 0.00168,0.00058 0.00273,0.00043c0.00106,-0.00016 0.00188,-0.00076 0.00248,-0.00182c0.00053,-0.00093 0.00064,-0.00195 0.00032,-0.00304c-0.00032,-0.0011 -0.00102,-0.00194 -0.00207,-0.00254c-0.00077,-0.00044 -0.00157,-0.00066 -0.00241,-0.00065c-0.00084,0.00001 -0.00164,0.00017 -0.00241,0.00049c-0.00077,0.00032 -0.00148,0.0008 -0.00215,0.00145c-0.00066,0.00065 -0.00121,0.00136 -0.00165,0.00213c-0.00066,0.00117 -0.00108,0.00248 -0.00125,0.00392c-0.00017,0.00143 -0.00019,0.00283 -0.00005,0.0042c0.00009,0.0008 0.00031,0.00151 0.00047,0.00225c-0.00188,-0.00011 -0.00379,0.00001 -0.0057,0.00054c-0.00241,0.00067 -0.00457,0.0018 -0.0064,0.00327c-0.00026,-0.00086 -0.00049,-0.00172 -0.0009,-0.00259c-0.00058,-0.00125 -0.00132,-0.00243 -0.00219,-0.00358c-0.00089,-0.00115 -0.00192,-0.00205 -0.00309,-0.00272c-0.00077,-0.00043 -0.00161,-0.00076 -0.00251,-0.00097c-0.0009,-0.00022 -0.00176,-0.00026 -0.00258,-0.00014s-0.00159,0.0004 -0.00232,0.00082c-0.00073,0.00042 -0.0013,0.00103 -0.00174,0.00179c-0.0006,0.00106 -0.00075,0.00214 -0.00047,0.00324c0.00029,0.00111 0.00091,0.00192 0.00184,0.00245c0.00105,0.0006 0.00208,0.00069 0.00306,0.00028c0.00098,-0.00041 0.00169,-0.001 0.00213,-0.00178c0.0006,-0.00105 0.00059,-0.00222 -0.00004,-0.00348c0.00122,-0.00028 0.00249,-0.00004 0.00379,0.00071c0.00041,0.00023 0.00086,0.00058 0.00135,0.00104c0.00049,0.00046 0.00097,0.00111 0.00143,0.00194c0.00047,0.00083 0.0009,0.00184 0.00126,0.00304c0.00007,0.00022 0.00012,0.00049 0.00018,0.00073c-0.00456,0.00414 -0.00679,0.01044 -0.00549,0.01679c-0.00291,0.00292 -0.00536,0.00635 -0.00729,0.01018l-0.0258,-0.01463c-0.0024,-0.00136 -0.00546,-0.00051 -0.00682,0.00189c-0.00136,0.00241 -0.00051,0.00547 0.00189,0.00684l0.02721,0.01541c-0.00166,0.0067 -0.00194,0.01404 -0.00059,0.02149l-0.02914,0.00807c-0.00267,0.00074 -0.00423,0.0035 -0.00349,0.00616c0.00074,0.00265 0.00349,0.00422 0.00616,0.00347l0.0294,-0.00814c0.00252,0.00529 0.00682,0.0114 0.01186,0.01722l-0.01597,0.0282c-0.00136,0.00241 -0.00052,0.00546 0.00189,0.00682c0.0012,0.00069 0.00256,0.00081 0.00379,0.00047c0.00124,-0.00034 0.00235,-0.00115 0.00302,-0.00236l0.01448,-0.02555c0.0135,0.01297 0.02842,0.02062 0.02889,0.00527c0.00799,0.0128 0.01726,-0.00169 0.02251,-0.01988l0.02602,0.01474c0.0012,0.00069 0.00257,0.00081 0.00381,0.00047c0.00123,-0.00034 0.00234,-0.00115 0.00302,-0.00236c0.00136,-0.0024 0.00052,-0.00546 -0.00189,-0.00681l-0.02851,-0.01615c0.00146,-0.00753 0.00211,-0.01492 0.0016,-0.02069l0.02943,-0.00814c0.00265,-0.00074 0.00424,-0.00349 0.00348,-0.00615c-0.00074,-0.00266 -0.0035,-0.00422 -0.00616,-0.00349z" stroke-width="0" stroke="#000" fill="#fff"/>
  <path stroke="#000" id="svg_31" d="m148.66392,51.25871c-8.51198,-7.26208 -27.80447,1.45242 -38.44445,7.33812c-3.05147,-0.45626 -6.25149,-0.7034 -9.58803,-0.7034c-13.44652,0 -24.2993,3.74511 -32.54629,10.80948c-9.37924,8.13277 -14.57878,18.78256 -14.57878,31.09008c0,0.10646 0.00402,0.21292 0.00402,0.31938c13.19759,-19.58101 33.49385,-29.61865 38.87406,-32.26874c0.8512,-0.37641 1.3571,0.58933 0.56613,0.96194c-0.06023,0.15969 -0.06023,0 0,0c-9.05,5.13289 -25.83306,19.99544 -36.72198,41.39006l-0.01205,-0.02661c-6.8939,13.48618 -12.71578,32.42843 -1.07203,39.38254c8.82114,5.25455 24.61248,-0.94293 37.32022,-8.81335c3.06753,0.41063 6.29164,0.62735 9.69643,0.62735c23.4481,0 39.89791,-12.25429 45.76797,-30.12813l-32.20902,-0.05323c-1.35308,6.31535 -5.87809,9.68785 -12.94062,9.68785c-8.87334,0 -14.97226,-4.60439 -15.36975,-15.25417l61.14173,-0.05323c0.11242,-2.19764 -0.16863,-3.74511 -0.16863,-5.45987c0,-19.96502 -12.61942,-35.56899 -33.14453,-40.54219c8.35539,-4.91997 23.98612,-12.20106 31.51039,-6.39139c5.64923,4.33444 2.54155,13.43295 1.18445,17.17806c-0.22484,0.96574 0.96362,1.12543 1.18847,0.21672c2.81859,-6.73358 3.66979,-15.77887 -0.45772,-19.30725zm-59.12616,89.00803c-9.91325,5.60815 -23.5806,9.65363 -30.26973,4.90095c-4.99075,-3.555 -2.7945,-13.18581 1.598,-22.57709c2.66602,3.77172 6.00255,7.17083 9.92931,9.99962c5.30794,3.77932 11.54337,6.33816 18.74242,7.67651zm-2.24042,-48.02099c0.16863,-9.2582 7.17496,-13.26946 14.52257,-13.26946c7.74109,0 14.01265,4.22798 14.01265,13.26946l-28.53522,0z" stroke-width="0" fill="#fff"/>
 </g>
</svg>
