<svg width="200" height="200" style="background-color: #20c997" xmlns="http://www.w3.org/2000/svg">

 <g>
  <path id="svg_7" d="m-34.81906,-28.69598l0.745,-1.30375l0.745,1.30375l-1.49,0z" stroke-width="0" stroke="#000" fill="#fff"/>
  <path id="svg_14" d="m143.62031,128.87041c3.46735,-5.17346 6.78348,-11.13778 9.70476,-16.49174l-87.53179,-2.45671l-12.00634,21.1569l-38.03636,-1.81712c4.766,-9.63248 9.98698,-20.94804 13.85788,-29.44715l-13.76949,-28.57222l40.58394,0l8.25755,17.85213l89.36781,0l-11.08539,-17.81217c3.4211,-5.61329 8.48413,-13.10434 11.23065,-17.03201l30.05588,45.39757l-30.12425,46.10181l-10.50488,-16.87929l0.00001,0.00001z" stroke-width="0" stroke="#000" fill="#fff"/>
  <path id="svg_15" d="m317.04866,88.47621c0.03071,-0.02977 0.06009,-0.06409 0.08596,-0.0949l-0.77536,-0.01414l-0.10635,0.12174l-0.33693,-0.01046c0.04222,-0.05543 0.08846,-0.12054 0.12275,-0.16944l-0.12197,-0.16441l0.35949,0l0.07315,0.10272l0.79162,0l-0.09819,-0.10249c0.0303,-0.0323 0.07515,-0.0754 0.09948,-0.098l0.26624,0.26122l-0.26684,0.26528l-0.09305,-0.09713l0,0z" stroke-width="0" stroke="#000" fill="#fff"/>
 </g>
</svg>
