<svg width="200" height="200" style="background-color: #fd7e14" xmlns="http://www.w3.org/2000/svg">

 <g>
  <path id="svg_7" d="m-34.81906,-28.69598l0.745,-1.30375l0.745,1.30375l-1.49,0z" stroke-width="0" stroke="#000" fill="#fff"/>
  <path stroke="#000" id="svg_8" d="m55.66117,78.5941c0.00247,-0.97402 0.84337,-6.94593 1.86936,-13.271c3.19918,-19.72271 3.24624,-19.80975 7.3081,-13.52368l2.40316,3.7191l7.02802,-3.67839c9.29587,-4.86532 20.38801,-6.66517 30.58426,-4.96265c4.3282,0.72273 8.92074,1.89742 10.20565,2.6104c2.55105,1.41552 2.38753,2.63115 -1.67837,12.47675c-2.22843,5.3962 -2.44233,5.54999 -6.29169,4.52404c-6.55174,-1.74612 -17.21986,-1.19613 -22.37048,1.15331l-4.8292,2.20291l3.38974,3.66841c1.86437,2.01768 2.92051,3.96914 2.34701,4.33662c-0.57352,0.36749 -7.55129,1.08375 -15.50612,1.59162c-11.93495,0.76204 -14.46268,0.61394 -14.45943,-0.84744l0,0zm61.45566,54.37955l-5.17012,-7.09989l4.70743,-4.71964c4.84502,-4.85752 8.33931,-11.67743 9.87875,-19.28074l0.87851,-4.33889l-5.06696,0.84003c-2.78683,0.46208 -5.08411,0.40204 -5.10506,-0.13336c-0.09785,-2.49966 13.15206,-27.14064 14.43997,-26.85418c2.02504,0.45039 22.57027,18.90015 22.57027,20.26817c0,0.61058 -2.15923,1.46816 -4.79825,1.90569l-4.79826,0.79549l-0.47356,8.48359c-0.6074,10.88053 -6.13719,23.43815 -13.83621,31.42065c-3.08361,3.19719 -6.15778,5.81305 -6.83147,5.81305c-0.67371,0 -3.55146,-3.195 -6.39503,-7.09996l0,0zm-46.67074,19.90045c0,-0.78505 0.81225,-3.05588 1.80501,-5.04635c1.80117,-3.61132 1.79074,-3.62885 -4.92414,-8.25147c-10.50593,-7.2324 -18.315,-20.06946 -20.7713,-34.14531l-0.80528,-4.61467l5.74164,-0.81593c11.83572,-1.682 11.9438,-1.63116 14.3142,6.73263c1.59955,5.64389 3.56684,9.02616 7.80761,13.42308c3.11809,3.23292 6.10492,5.59882 6.63741,5.25761c0.53247,-0.3412 1.30318,-2.35732 1.7127,-4.48028c0.40951,-2.12297 1.26344,-3.85996 1.89761,-3.85996c1.45597,0 15.16682,22.41445 15.38449,25.15049c0.14537,1.82738 -7.26635,4.99134 -26.58243,11.34776c-1.23169,0.4053 -2.21753,0.09523 -2.21753,-0.69762l0,0z" stroke-width="0" fill="#fff"/>
 </g>
</svg>
